<?xml version="1.0" encoding="utf-8"?>
<!-- Generator: Adobe Illustrator 28.0.0, SVG Export Plug-In . SVG Version: 6.00 Build 0)  -->
<svg version="1.1" id="Calque_1" xmlns="http://www.w3.org/2000/svg" xmlns:xlink="http://www.w3.org/1999/xlink" x="0px" y="0px"
	 viewBox="0 0 256 256" style="enable-background:new 0 0 256 256;" xml:space="preserve">
<style type="text/css">
	.st0{fill:#03B209;}
	.st1{fill:#039507;}
	.st2{fill:#FFFFFF;}
</style>
<g transform="translate(1.4065934065934016 1.4065934065934016) scale(2.81 2.81)">
	<path class="st0" d="M49.7,1.1L49.7,1.1c4.7-2.4,10.4-0.9,13.2,3.5l0,0c1.8,2.8,4.8,4.5,8.1,4.7l0,0c5.2,0.3,9.4,4.5,9.7,9.7l0,0
		c0.2,3.3,1.9,6.3,4.7,8.1l0,0c4.4,2.8,5.9,8.6,3.5,13.2l0,0c-1.5,2.9-1.5,6.4,0,9.3l0,0c2.4,4.7,0.9,10.4-3.5,13.2l0,0
		c-2.8,1.8-4.5,4.8-4.7,8.1l0,0c-0.3,5.2-4.5,9.4-9.7,9.7l0,0c-3.3,0.2-6.3,1.9-8.1,4.7l0,0c-2.8,4.4-8.6,5.9-13.2,3.5l0,0
		c-2.9-1.5-6.4-1.5-9.3,0l0,0c-4.7,2.4-10.4,0.9-13.2-3.5l0,0c-1.8-2.8-4.8-4.5-8.1-4.7l0,0c-5.2-0.3-9.4-4.5-9.7-9.7l0,0
		c-0.2-3.3-1.9-6.3-4.7-8.1l0,0c-4.4-2.8-5.9-8.6-3.5-13.2l0,0c1.5-2.9,1.5-6.4,0-9.3l0,0c-2.4-4.7-0.9-10.4,3.5-13.2l0,0
		c2.8-1.8,4.5-4.8,4.7-8.1l0,0c0.3-5.2,4.5-9.4,9.7-9.7l0,0c3.3-0.2,6.3-1.9,8.1-4.7l0,0c2.8-4.4,8.6-5.9,13.2-3.5l0,0
		C43.3,2.6,46.7,2.6,49.7,1.1z"/>
	<polygon class="st1" points="36.9,66.3 36.9,66.3 36.9,46.9 36.9,46.9 62.8,35.3 72.5,45 	"/>
	<polygon class="st2" points="36.9,66.3 17.5,46.9 27.2,37.2 36.9,46.9 60.1,23.7 69.8,33.4 	"/>
</g>
</svg>
